<?xml version="1.0" standalone="no"?>
<!DOCTYPE svg PUBLIC "-//W3C//DTD SVG 20010904//EN"
 "http://www.w3.org/TR/2001/REC-SVG-20010904/DTD/svg10.dtd">
<svg version="1.0" xmlns="http://www.w3.org/2000/svg"
 width="700.000000pt" height="700.000000pt" viewBox="0 0 700.000000 700.000000"
 preserveAspectRatio="xMidYMid meet">
<metadata>
Created by potrace 1.14, written by Peter Selinger 2001-2017
</metadata>
<g transform="translate(0.000000,700.000000) scale(0.100000,-0.100000)"
fill="#000000" stroke="none">
<path d="M3210 6990 c-896 -85 -1660 -458 -2274 -1110 -453 -480 -773 -1125
-885 -1780 -37 -219 -46 -331 -46 -605 1 -290 14 -436 61 -675 228 -1156 1038
-2132 2134 -2570 566 -226 1198 -301 1800 -214 987 143 1863 697 2415 1529
318 479 492 960 567 1565 17 138 17 602 0 740 -76 610 -261 1116 -583 1590
-565 833 -1444 1377 -2442 1511 -174 23 -589 34 -747 19z m-1605 -2331 c37
-19 64 -45 109 -105 57 -76 629 -972 693 -1084 36 -64 152 -321 179 -397 12
-33 25 -53 34 -53 14 0 14 11 2 103 -10 75 -15 293 -19 835 l-4 732 405 0 406
0 -2 -1312 -3 -1313 -23 -51 c-29 -63 -62 -96 -127 -126 -48 -22 -59 -23 -320
-23 l-270 0 -55 28 c-55 28 -109 85 -160 172 -13 22 -163 260 -333 529 -363
574 -403 649 -473 884 -18 62 -32 92 -42 92 -12 0 -13 -11 -7 -62 4 -35 11
-103 17 -153 5 -49 12 -406 15 -792 l5 -703 -411 0 -411 0 0 1298 c0 1416 -2
1362 56 1431 76 90 124 101 439 98 247 -2 251 -2 300 -28z m3946 5 c62 -29
116 -79 143 -133 13 -25 184 -615 380 -1311 197 -696 363 -1286 371 -1312 l14
-48 -453 0 -453 0 -70 302 -70 303 -390 3 -391 2 -6 -24 c-3 -14 -33 -143 -67
-288 -33 -145 -62 -271 -65 -280 -5 -17 -35 -18 -455 -18 -267 0 -449 4 -449
9 0 18 741 2635 752 2655 38 72 119 137 193 155 23 5 241 9 505 8 450 -2 466
-3 511 -23z"/>
<path d="M4967 4024 c-4 -4 -7 -22 -7 -40 0 -60 -40 -268 -110 -570 -39 -166
-70 -306 -70 -313 0 -8 67 -11 240 -11 222 0 240 1 240 17 0 10 -34 164 -75
343 -41 179 -82 381 -92 450 l-18 125 -50 3 c-28 2 -54 0 -58 -4z"/>
</g>
</svg>
